<svg xmlns="http://www.w3.org/2000/svg" viewBox="0 0 100 100" width="100" height="100">
  <g fill="none" stroke="#c9a96e" transform="translate(50,50)">
    <circle r="46" stroke-width="1.2"/>
    <circle r="42" stroke-width="0.4"/>
    <ellipse cy="-24" rx="9" ry="22" stroke-width="0.9"/>
    <ellipse cy="-24" rx="9" ry="22" stroke-width="0.9" transform="rotate(45)"/>
    <ellipse cy="-24" rx="9" ry="22" stroke-width="0.9" transform="rotate(90)"/>
    <ellipse cy="-24" rx="9" ry="22" stroke-width="0.9" transform="rotate(135)"/>
    <ellipse cy="-24" rx="9" ry="22" stroke-width="0.9" transform="rotate(180)"/>
    <ellipse cy="-24" rx="9" ry="22" stroke-width="0.9" transform="rotate(225)"/>
    <ellipse cy="-24" rx="9" ry="22" stroke-width="0.9" transform="rotate(270)"/>
    <ellipse cy="-24" rx="9" ry="22" stroke-width="0.9" transform="rotate(315)"/>
    <circle r="10" stroke-width="0.6"/>
    <ellipse cy="-5" rx="3" ry="6" stroke-width="0.7"/>
    <ellipse cy="-5" rx="3" ry="6" stroke-width="0.7" transform="rotate(60)"/>
    <ellipse cy="-5" rx="3" ry="6" stroke-width="0.7" transform="rotate(120)"/>
    <ellipse cy="-5" rx="3" ry="6" stroke-width="0.7" transform="rotate(180)"/>
    <ellipse cy="-5" rx="3" ry="6" stroke-width="0.7" transform="rotate(240)"/>
    <ellipse cy="-5" rx="3" ry="6" stroke-width="0.7" transform="rotate(300)"/>
    <circle r="2" fill="#c9a96e" stroke="none"/>
  </g>
</svg>
