<svg xmlns="http://www.w3.org/2000/svg" viewBox="0 0 800 800" width="800" height="800">
  <g fill="none" stroke="#ffffff" transform="translate(400,400)">
    <!-- Outermost rings -->
    <circle r="395" stroke-width="1.5"/>
    <circle r="385" stroke-width="0.5"/>
    <circle r="370" stroke-width="0.3"/>

    <!-- Outer petal ring - 24 petals -->
    <ellipse cy="-330" rx="18" ry="55" stroke-width="0.7" transform="rotate(0)"/>
    <ellipse cy="-330" rx="18" ry="55" stroke-width="0.7" transform="rotate(15)"/>
    <ellipse cy="-330" rx="18" ry="55" stroke-width="0.7" transform="rotate(30)"/>
    <ellipse cy="-330" rx="18" ry="55" stroke-width="0.7" transform="rotate(45)"/>
    <ellipse cy="-330" rx="18" ry="55" stroke-width="0.7" transform="rotate(60)"/>
    <ellipse cy="-330" rx="18" ry="55" stroke-width="0.7" transform="rotate(75)"/>
    <ellipse cy="-330" rx="18" ry="55" stroke-width="0.7" transform="rotate(90)"/>
    <ellipse cy="-330" rx="18" ry="55" stroke-width="0.7" transform="rotate(105)"/>
    <ellipse cy="-330" rx="18" ry="55" stroke-width="0.7" transform="rotate(120)"/>
    <ellipse cy="-330" rx="18" ry="55" stroke-width="0.7" transform="rotate(135)"/>
    <ellipse cy="-330" rx="18" ry="55" stroke-width="0.7" transform="rotate(150)"/>
    <ellipse cy="-330" rx="18" ry="55" stroke-width="0.7" transform="rotate(165)"/>
    <ellipse cy="-330" rx="18" ry="55" stroke-width="0.7" transform="rotate(180)"/>
    <ellipse cy="-330" rx="18" ry="55" stroke-width="0.7" transform="rotate(195)"/>
    <ellipse cy="-330" rx="18" ry="55" stroke-width="0.7" transform="rotate(210)"/>
    <ellipse cy="-330" rx="18" ry="55" stroke-width="0.7" transform="rotate(225)"/>
    <ellipse cy="-330" rx="18" ry="55" stroke-width="0.7" transform="rotate(240)"/>
    <ellipse cy="-330" rx="18" ry="55" stroke-width="0.7" transform="rotate(255)"/>
    <ellipse cy="-330" rx="18" ry="55" stroke-width="0.7" transform="rotate(270)"/>
    <ellipse cy="-330" rx="18" ry="55" stroke-width="0.7" transform="rotate(285)"/>
    <ellipse cy="-330" rx="18" ry="55" stroke-width="0.7" transform="rotate(300)"/>
    <ellipse cy="-330" rx="18" ry="55" stroke-width="0.7" transform="rotate(315)"/>
    <ellipse cy="-330" rx="18" ry="55" stroke-width="0.7" transform="rotate(330)"/>
    <ellipse cy="-330" rx="18" ry="55" stroke-width="0.7" transform="rotate(345)"/>

    <!-- Decorative ring -->
    <circle r="280" stroke-width="1"/>
    <circle r="275" stroke-width="0.3"/>

    <!-- Radiating lines from center to outer ring -->
    <line y2="-275" stroke-width="0.3" transform="rotate(0)"/>
    <line y2="-275" stroke-width="0.3" transform="rotate(30)"/>
    <line y2="-275" stroke-width="0.3" transform="rotate(60)"/>
    <line y2="-275" stroke-width="0.3" transform="rotate(90)"/>
    <line y2="-275" stroke-width="0.3" transform="rotate(120)"/>
    <line y2="-275" stroke-width="0.3" transform="rotate(150)"/>
    <line y2="-275" stroke-width="0.3" transform="rotate(180)"/>
    <line y2="-275" stroke-width="0.3" transform="rotate(210)"/>
    <line y2="-275" stroke-width="0.3" transform="rotate(240)"/>
    <line y2="-275" stroke-width="0.3" transform="rotate(270)"/>
    <line y2="-275" stroke-width="0.3" transform="rotate(300)"/>
    <line y2="-275" stroke-width="0.3" transform="rotate(330)"/>

    <!-- Middle petal ring - 16 petals -->
    <ellipse cy="-220" rx="22" ry="55" stroke-width="0.7" transform="rotate(0)"/>
    <ellipse cy="-220" rx="22" ry="55" stroke-width="0.7" transform="rotate(22.5)"/>
    <ellipse cy="-220" rx="22" ry="55" stroke-width="0.7" transform="rotate(45)"/>
    <ellipse cy="-220" rx="22" ry="55" stroke-width="0.7" transform="rotate(67.5)"/>
    <ellipse cy="-220" rx="22" ry="55" stroke-width="0.7" transform="rotate(90)"/>
    <ellipse cy="-220" rx="22" ry="55" stroke-width="0.7" transform="rotate(112.5)"/>
    <ellipse cy="-220" rx="22" ry="55" stroke-width="0.7" transform="rotate(135)"/>
    <ellipse cy="-220" rx="22" ry="55" stroke-width="0.7" transform="rotate(157.5)"/>
    <ellipse cy="-220" rx="22" ry="55" stroke-width="0.7" transform="rotate(180)"/>
    <ellipse cy="-220" rx="22" ry="55" stroke-width="0.7" transform="rotate(202.5)"/>
    <ellipse cy="-220" rx="22" ry="55" stroke-width="0.7" transform="rotate(225)"/>
    <ellipse cy="-220" rx="22" ry="55" stroke-width="0.7" transform="rotate(247.5)"/>
    <ellipse cy="-220" rx="22" ry="55" stroke-width="0.7" transform="rotate(270)"/>
    <ellipse cy="-220" rx="22" ry="55" stroke-width="0.7" transform="rotate(292.5)"/>
    <ellipse cy="-220" rx="22" ry="55" stroke-width="0.7" transform="rotate(315)"/>
    <ellipse cy="-220" rx="22" ry="55" stroke-width="0.7" transform="rotate(337.5)"/>

    <!-- Inner decorative rings -->
    <circle r="170" stroke-width="0.8"/>
    <circle r="165" stroke-width="0.3"/>

    <!-- Diamond shapes - rotated squares -->
    <rect x="-105" y="-105" width="210" height="210" stroke-width="0.5" transform="rotate(0)"/>
    <rect x="-105" y="-105" width="210" height="210" stroke-width="0.5" transform="rotate(15)"/>
    <rect x="-105" y="-105" width="210" height="210" stroke-width="0.5" transform="rotate(30)"/>
    <rect x="-105" y="-105" width="210" height="210" stroke-width="0.5" transform="rotate(45)"/>

    <!-- Inner petal ring - 12 petals -->
    <ellipse cy="-110" rx="16" ry="42" stroke-width="0.8" transform="rotate(0)"/>
    <ellipse cy="-110" rx="16" ry="42" stroke-width="0.8" transform="rotate(30)"/>
    <ellipse cy="-110" rx="16" ry="42" stroke-width="0.8" transform="rotate(60)"/>
    <ellipse cy="-110" rx="16" ry="42" stroke-width="0.8" transform="rotate(90)"/>
    <ellipse cy="-110" rx="16" ry="42" stroke-width="0.8" transform="rotate(120)"/>
    <ellipse cy="-110" rx="16" ry="42" stroke-width="0.8" transform="rotate(150)"/>
    <ellipse cy="-110" rx="16" ry="42" stroke-width="0.8" transform="rotate(180)"/>
    <ellipse cy="-110" rx="16" ry="42" stroke-width="0.8" transform="rotate(210)"/>
    <ellipse cy="-110" rx="16" ry="42" stroke-width="0.8" transform="rotate(240)"/>
    <ellipse cy="-110" rx="16" ry="42" stroke-width="0.8" transform="rotate(270)"/>
    <ellipse cy="-110" rx="16" ry="42" stroke-width="0.8" transform="rotate(300)"/>
    <ellipse cy="-110" rx="16" ry="42" stroke-width="0.8" transform="rotate(330)"/>

    <!-- Small dot ring -->
    <circle cy="-148" r="2.5" fill="#ffffff" stroke="none" transform="rotate(0)"/>
    <circle cy="-148" r="2.5" fill="#ffffff" stroke="none" transform="rotate(30)"/>
    <circle cy="-148" r="2.5" fill="#ffffff" stroke="none" transform="rotate(60)"/>
    <circle cy="-148" r="2.5" fill="#ffffff" stroke="none" transform="rotate(90)"/>
    <circle cy="-148" r="2.5" fill="#ffffff" stroke="none" transform="rotate(120)"/>
    <circle cy="-148" r="2.5" fill="#ffffff" stroke="none" transform="rotate(150)"/>
    <circle cy="-148" r="2.5" fill="#ffffff" stroke="none" transform="rotate(180)"/>
    <circle cy="-148" r="2.5" fill="#ffffff" stroke="none" transform="rotate(210)"/>
    <circle cy="-148" r="2.5" fill="#ffffff" stroke="none" transform="rotate(240)"/>
    <circle cy="-148" r="2.5" fill="#ffffff" stroke="none" transform="rotate(270)"/>
    <circle cy="-148" r="2.5" fill="#ffffff" stroke="none" transform="rotate(300)"/>
    <circle cy="-148" r="2.5" fill="#ffffff" stroke="none" transform="rotate(330)"/>

    <!-- Innermost rings -->
    <circle r="68" stroke-width="0.6"/>
    <circle r="62" stroke-width="0.3"/>

    <!-- Center lotus - 8 petals -->
    <ellipse cy="-35" rx="11" ry="28" stroke-width="0.8" transform="rotate(0)"/>
    <ellipse cy="-35" rx="11" ry="28" stroke-width="0.8" transform="rotate(45)"/>
    <ellipse cy="-35" rx="11" ry="28" stroke-width="0.8" transform="rotate(90)"/>
    <ellipse cy="-35" rx="11" ry="28" stroke-width="0.8" transform="rotate(135)"/>
    <ellipse cy="-35" rx="11" ry="28" stroke-width="0.8" transform="rotate(180)"/>
    <ellipse cy="-35" rx="11" ry="28" stroke-width="0.8" transform="rotate(225)"/>
    <ellipse cy="-35" rx="11" ry="28" stroke-width="0.8" transform="rotate(270)"/>
    <ellipse cy="-35" rx="11" ry="28" stroke-width="0.8" transform="rotate(315)"/>

    <!-- Center inner petals - 6 petals -->
    <ellipse cy="-12" rx="5" ry="14" stroke-width="0.6" transform="rotate(0)"/>
    <ellipse cy="-12" rx="5" ry="14" stroke-width="0.6" transform="rotate(60)"/>
    <ellipse cy="-12" rx="5" ry="14" stroke-width="0.6" transform="rotate(120)"/>
    <ellipse cy="-12" rx="5" ry="14" stroke-width="0.6" transform="rotate(180)"/>
    <ellipse cy="-12" rx="5" ry="14" stroke-width="0.6" transform="rotate(240)"/>
    <ellipse cy="-12" rx="5" ry="14" stroke-width="0.6" transform="rotate(300)"/>

    <!-- Center point -->
    <circle r="4" fill="#ffffff" stroke="none"/>
  </g>
</svg>
